<svg width="280" height="280" viewBox="0 0 280 280" fill="none" xmlns="http://www.w3.org/2000/svg">
<path d="M280 140C280 217.32 217.32 280 140 280C62.6801 280 0 217.32 0 140C0 62.6801 62.6801 0 140 0C217.32 0 280 62.6801 280 140Z" fill="white"/>
<path d="M233.824 151.385V121.101C233.824 109.171 231.385 97.3566 226.646 86.334C221.908 75.3115 214.962 65.2961 206.206 56.8597C197.45 48.4234 187.056 41.7314 175.616 37.1656C164.175 32.5999 151.914 30.25 139.531 30.25C127.149 30.25 114.887 32.5999 103.447 37.1656C92.0068 41.7314 81.6121 48.4234 72.8562 56.8597C64.1003 65.2961 57.1547 75.3115 52.4161 86.334C47.6774 97.3566 45.2385 109.171 45.2385 121.101V151.385" stroke="black" stroke-width="2.08333" stroke-linecap="round"/>
<path d="M45.2385 151.385V146.338H40V151.385H45.2385ZM45.2385 156.432H76.6694V146.338H45.2385V156.432ZM81.9079 161.48V191.764H92.3849V161.48H81.9079ZM50.477 191.764V151.385H40V191.764H50.477ZM66.1924 206.905C62.0244 206.905 58.0271 205.31 55.0799 202.47C52.1327 199.631 50.477 195.779 50.477 191.764H40C40 198.457 42.7596 204.876 47.6716 209.608C52.5836 214.341 59.2458 217 66.1924 217V206.905ZM81.9079 191.764C81.9079 195.779 80.2522 199.631 77.3049 202.47C74.3577 205.31 70.3604 206.905 66.1924 206.905V217C73.1391 217 79.8012 214.341 84.7133 209.608C89.6253 204.876 92.3849 198.457 92.3849 191.764H81.9079ZM76.6694 156.432C78.0587 156.432 79.3912 156.964 80.3736 157.911C81.356 158.857 81.9079 160.141 81.9079 161.48H92.3849C92.3849 157.464 90.7291 153.612 87.7819 150.773C84.8347 147.933 80.8374 146.338 76.6694 146.338V156.432ZM233.824 151.385H239.062V146.338H233.824V151.385ZM202.393 156.432H233.824V146.338H202.393V156.432ZM228.586 151.385V191.764H239.062V151.385H228.586ZM197.155 191.764V161.48H186.678V191.764H197.155ZM212.87 206.905C208.702 206.905 204.705 205.31 201.758 202.47C198.81 199.631 197.155 195.779 197.155 191.764H186.678C186.678 198.457 189.437 204.876 194.349 209.608C199.261 214.341 205.923 217 212.87 217V206.905ZM228.586 191.764C228.586 195.779 226.93 199.631 223.983 202.47C221.035 205.31 217.038 206.905 212.87 206.905V217C219.817 217 226.479 214.341 231.391 209.608C236.303 204.876 239.062 198.457 239.062 191.764H228.586ZM202.393 146.338C198.225 146.338 194.228 147.933 191.281 150.773C188.333 153.612 186.678 157.464 186.678 161.48H197.155C197.155 160.141 197.706 158.857 198.689 157.911C199.671 156.964 201.004 156.432 202.393 156.432V146.338Z" fill="black"/>
<path d="M143.375 104.688H153.688V138.125H143.375V144.812H170.875V138.125H160.562V104.688H170.875V98H143.375V104.688ZM129.625 98H115.875C112.083 98 109 100.999 109 104.688V144.812H115.875V128.094H129.625V144.812H136.5V104.688C136.5 100.999 133.417 98 129.625 98ZM115.875 121.406V104.688H129.625V121.406H115.875Z" fill="black"/>
</svg>
